<svg width="131" height="48" viewBox="0 0 131 48" fill="none" xmlns="http://www.w3.org/2000/svg">
<mask id="mask0_412_4" style="mask-type:alpha" maskUnits="userSpaceOnUse" x="2" y="2" width="44" height="44">
<path d="M44 28H28V44H44V28ZM13 4L22 20H4L13 4ZM36 20C38.1217 20 40.1566 19.1571 41.6569 17.6569C43.1571 16.1566 44 14.1217 44 12C44 9.87827 43.1571 7.84344 41.6569 6.34315C40.1566 4.84285 38.1217 4 36 4C33.8783 4 31.8434 4.84285 30.3431 6.34315C28.8429 7.84344 28 9.87827 28 12C28 14.1217 28.8429 16.1566 30.3431 17.6569C31.8434 19.1571 33.8783 20 36 20Z" fill="white" stroke="white" stroke-width="4" stroke-linejoin="round"/>
<path d="M4 28L20 44M20 28L4 44" stroke="white" stroke-width="4" stroke-linecap="round" stroke-linejoin="round"/>
</mask>
<g mask="url(#mask0_412_4)">
<path d="M0 0H48V48H0V0Z" fill="#A100ED"/>
</g>
<g clip-path="url(#clip0_412_4)">
<mask id="mask1_412_4" style="mask-type:alpha" maskUnits="userSpaceOnUse" x="2" y="2" width="44" height="44">
<path d="M44 28H28V44H44V28ZM13 4L22 20H4L13 4ZM36 20C38.1217 20 40.1566 19.1571 41.6569 17.6569C43.1571 16.1566 44 14.1217 44 12C44 9.87827 43.1571 7.84344 41.6569 6.34315C40.1566 4.84285 38.1217 4 36 4C33.8783 4 31.8434 4.84285 30.3431 6.34315C28.8429 7.84344 28 9.87827 28 12C28 14.1217 28.8429 16.1566 30.3431 17.6569C31.8434 19.1571 33.8783 20 36 20Z" fill="white" stroke="white" stroke-width="4" stroke-linejoin="round"/>
</mask>
<g mask="url(#mask1_412_4)">
<path d="M0 0H48V48H0V0Z" fill="#DA00FE"/>
</g>
</g>
<path d="M62.48 26.16C61.6693 26.16 60.912 26.0107 60.208 25.712C59.504 25.4133 58.8853 25.0027 58.352 24.48C57.8187 23.9467 57.3973 23.3333 57.088 22.64C56.7893 21.9467 56.64 21.2 56.64 20.4C56.64 19.6 56.7893 18.8533 57.088 18.16C57.3973 17.4667 57.8187 16.8587 58.352 16.336C58.8853 15.8027 59.504 15.3867 60.208 15.088C60.912 14.7893 61.6693 14.64 62.48 14.64C62.9813 14.64 63.4667 14.6933 63.936 14.8C64.4053 14.9067 64.8373 15.0667 65.232 15.28C65.392 15.3653 65.5093 15.4827 65.584 15.632C65.6693 15.7707 65.712 15.9147 65.712 16.064C65.712 16.32 65.6267 16.5493 65.456 16.752C65.2853 16.9547 65.0667 17.056 64.8 17.056C64.7147 17.056 64.624 17.0453 64.528 17.024C64.4427 17.0027 64.3573 16.9707 64.272 16.928C64.0053 16.8107 63.7227 16.72 63.424 16.656C63.1253 16.592 62.8107 16.56 62.48 16.56C61.7867 16.56 61.152 16.736 60.576 17.088C60.0107 17.4293 59.5573 17.8933 59.216 18.48C58.8853 19.056 58.72 19.696 58.72 20.4C58.72 21.0933 58.8853 21.7333 59.216 22.32C59.5573 22.9067 60.0107 23.376 60.576 23.728C61.152 24.0693 61.7867 24.24 62.48 24.24C62.8 24.24 63.152 24.208 63.536 24.144C63.92 24.08 64.2347 23.9947 64.48 23.888L64.336 24.368V21.632L64.608 21.872H62.832C62.5547 21.872 62.32 21.7813 62.128 21.6C61.9467 21.4187 61.856 21.1893 61.856 20.912C61.856 20.6347 61.9467 20.4053 62.128 20.224C62.32 20.0427 62.5547 19.952 62.832 19.952H65.456C65.7333 19.952 65.9627 20.048 66.144 20.24C66.3253 20.4213 66.416 20.6507 66.416 20.928V24.32C66.416 24.5333 66.3627 24.7093 66.256 24.848C66.16 24.9867 66.048 25.0987 65.92 25.184C65.4293 25.4827 64.8907 25.7227 64.304 25.904C63.728 26.0747 63.12 26.16 62.48 26.16ZM72.4526 17.312L68.9966 25.44C68.922 25.6427 68.8046 25.8027 68.6446 25.92C68.4953 26.0267 68.33 26.08 68.1486 26.08C67.8606 26.08 67.6473 26 67.5086 25.84C67.37 25.68 67.3006 25.4827 67.3006 25.248C67.3006 25.152 67.3166 25.0507 67.3486 24.944L71.3326 15.376C71.418 15.1627 71.546 14.9973 71.7166 14.88C71.898 14.7627 72.09 14.7147 72.2926 14.736C72.4846 14.736 72.6606 14.7947 72.8206 14.912C72.9913 15.0187 73.114 15.1733 73.1886 15.376L77.1246 24.752C77.178 24.8907 77.2046 25.0187 77.2046 25.136C77.2046 25.424 77.1086 25.6533 76.9166 25.824C76.7353 25.9947 76.5326 26.08 76.3086 26.08C76.1166 26.08 75.9406 26.0213 75.7806 25.904C75.6313 25.7867 75.514 25.6267 75.4286 25.424L71.9886 17.408L72.4526 17.312ZM69.4926 23.488L70.3726 21.648H74.6926L74.9966 23.488H69.4926ZM79.5674 14.784C79.7167 14.784 79.8714 14.8267 80.0314 14.912C80.202 14.9867 80.33 15.088 80.4154 15.216L84.3034 21.2L83.5034 21.168L87.4874 15.216C87.69 14.928 87.9514 14.784 88.2714 14.784C88.5274 14.784 88.7567 14.8747 88.9594 15.056C89.162 15.2373 89.2634 15.472 89.2634 15.76V25.024C89.2634 25.3013 89.1727 25.536 88.9914 25.728C88.81 25.9093 88.57 26 88.2714 26C87.9727 26 87.7274 25.9093 87.5354 25.728C87.354 25.536 87.2634 25.3013 87.2634 25.024V17.488L87.8874 17.632L84.6234 22.608C84.5274 22.7253 84.4047 22.8267 84.2554 22.912C84.1167 22.9973 83.9727 23.0347 83.8234 23.024C83.6847 23.0347 83.5407 22.9973 83.3914 22.912C83.2527 22.8267 83.1354 22.7253 83.0394 22.608L79.9834 17.776L80.3994 16.928V25.024C80.3994 25.3013 80.314 25.536 80.1434 25.728C79.9727 25.9093 79.7487 26 79.4714 26C79.2047 26 78.986 25.9093 78.8154 25.728C78.6447 25.536 78.5594 25.3013 78.5594 25.024V15.76C78.5594 15.4933 78.6554 15.264 78.8474 15.072C79.05 14.88 79.29 14.784 79.5674 14.784ZM92.6448 14.8H98.0048C98.2821 14.8 98.5114 14.8907 98.6927 15.072C98.8848 15.2427 98.9808 15.4667 98.9808 15.744C98.9808 16.0107 98.8848 16.2293 98.6927 16.4C98.5114 16.56 98.2821 16.64 98.0048 16.64H93.5248L93.6688 16.368V19.488L93.5408 19.36H97.2848C97.5621 19.36 97.7914 19.4507 97.9728 19.632C98.1648 19.8027 98.2608 20.0267 98.2608 20.304C98.2608 20.5707 98.1648 20.7893 97.9728 20.96C97.7914 21.12 97.5621 21.2 97.2848 21.2H93.5888L93.6688 21.072V24.304L93.5408 24.16H98.0048C98.2821 24.16 98.5114 24.256 98.6927 24.448C98.8848 24.6293 98.9808 24.8427 98.9808 25.088C98.9808 25.3547 98.8848 25.5733 98.6927 25.744C98.5114 25.9147 98.2821 26 98.0048 26H92.6448C92.3674 26 92.1328 25.9093 91.9408 25.728C91.7594 25.536 91.6688 25.3013 91.6688 25.024V15.776C91.6688 15.4987 91.7594 15.2693 91.9408 15.088C92.1328 14.896 92.3674 14.8 92.6448 14.8Z" fill="#DA00FE"/>
<path d="M83.8 42.16C83.0533 42.16 82.3813 42.0693 81.784 41.888C81.1867 41.696 80.616 41.3653 80.072 40.896C79.9333 40.7787 79.8267 40.6453 79.752 40.496C79.6773 40.3467 79.64 40.1973 79.64 40.048C79.64 39.8027 79.7253 39.5893 79.896 39.408C80.0773 39.216 80.3013 39.12 80.568 39.12C80.7707 39.12 80.952 39.184 81.112 39.312C81.5173 39.6427 81.9173 39.8933 82.312 40.064C82.7173 40.2347 83.2133 40.32 83.8 40.32C84.1947 40.32 84.5573 40.2613 84.888 40.144C85.2187 40.016 85.4853 39.8507 85.688 39.648C85.8907 39.4347 85.992 39.1947 85.992 38.928C85.992 38.608 85.896 38.336 85.704 38.112C85.512 37.888 85.2187 37.7013 84.824 37.552C84.4293 37.392 83.928 37.2693 83.32 37.184C82.744 37.0987 82.2373 36.9707 81.8 36.8C81.3627 36.6187 80.9947 36.3947 80.696 36.128C80.408 35.8507 80.1893 35.5307 80.04 35.168C79.8907 34.7947 79.816 34.3787 79.816 33.92C79.816 33.2267 79.992 32.6347 80.344 32.144C80.7067 31.6533 81.192 31.28 81.8 31.024C82.408 30.768 83.08 30.64 83.816 30.64C84.5093 30.64 85.1493 30.7467 85.736 30.96C86.3333 31.1627 86.8187 31.424 87.192 31.744C87.5013 31.9893 87.656 32.272 87.656 32.592C87.656 32.8267 87.5653 33.04 87.384 33.232C87.2027 33.424 86.9893 33.52 86.744 33.52C86.584 33.52 86.44 33.472 86.312 33.376C86.1413 33.2267 85.912 33.088 85.624 32.96C85.336 32.8213 85.032 32.7093 84.712 32.624C84.392 32.528 84.0933 32.48 83.816 32.48C83.3573 32.48 82.968 32.5387 82.648 32.656C82.3387 32.7733 82.104 32.9333 81.944 33.136C81.784 33.3387 81.704 33.5733 81.704 33.84C81.704 34.16 81.7947 34.4267 81.976 34.64C82.168 34.8427 82.44 35.008 82.792 35.136C83.144 35.2533 83.5653 35.36 84.056 35.456C84.696 35.5733 85.256 35.712 85.736 35.872C86.2267 36.032 86.632 36.24 86.952 36.496C87.272 36.7413 87.512 37.056 87.672 37.44C87.832 37.8133 87.912 38.272 87.912 38.816C87.912 39.5093 87.72 40.1067 87.336 40.608C86.952 41.1093 86.4453 41.4933 85.816 41.76C85.1973 42.0267 84.5253 42.16 83.8 42.16ZM93.5389 42C93.2402 42 92.9949 41.9093 92.8029 41.728C92.6109 41.536 92.5149 41.3013 92.5149 41.024V31.744H94.5949V41.024C94.5949 41.3013 94.4935 41.536 94.2909 41.728C94.0989 41.9093 93.8482 42 93.5389 42ZM90.0029 32.64C89.7255 32.64 89.4909 32.5547 89.2989 32.384C89.1175 32.2133 89.0269 31.9893 89.0269 31.712C89.0269 31.4347 89.1175 31.216 89.2989 31.056C89.4909 30.8853 89.7255 30.8 90.0029 30.8H97.1069C97.3842 30.8 97.6135 30.8853 97.7949 31.056C97.9869 31.2267 98.0829 31.4507 98.0829 31.728C98.0829 32.0053 97.9869 32.2293 97.7949 32.4C97.6135 32.56 97.3842 32.64 97.1069 32.64H90.0029ZM109.754 36.4C109.754 37.2 109.621 37.9467 109.354 38.64C109.087 39.3333 108.709 39.9467 108.218 40.48C107.738 41.0027 107.162 41.4133 106.49 41.712C105.829 42.0107 105.103 42.16 104.314 42.16C103.525 42.16 102.799 42.0107 102.138 41.712C101.477 41.4133 100.901 41.0027 100.41 40.48C99.93 39.9467 99.5567 39.3333 99.29 38.64C99.0233 37.9467 98.89 37.2 98.89 36.4C98.89 35.6 99.0233 34.8533 99.29 34.16C99.5567 33.4667 99.93 32.8587 100.41 32.336C100.901 31.8027 101.477 31.3867 102.138 31.088C102.799 30.7893 103.525 30.64 104.314 30.64C105.103 30.64 105.829 30.7893 106.49 31.088C107.162 31.3867 107.738 31.8027 108.218 32.336C108.709 32.8587 109.087 33.4667 109.354 34.16C109.621 34.8533 109.754 35.6 109.754 36.4ZM107.674 36.4C107.674 35.6853 107.53 35.04 107.242 34.464C106.954 33.8773 106.559 33.4133 106.058 33.072C105.557 32.7307 104.975 32.56 104.314 32.56C103.653 32.56 103.071 32.7307 102.57 33.072C102.069 33.4133 101.674 33.872 101.386 34.448C101.109 35.024 100.97 35.6747 100.97 36.4C100.97 37.1147 101.109 37.7653 101.386 38.352C101.674 38.928 102.069 39.3867 102.57 39.728C103.071 40.0693 103.653 40.24 104.314 40.24C104.975 40.24 105.557 40.0693 106.058 39.728C106.559 39.3867 106.954 38.928 107.242 38.352C107.53 37.7653 107.674 37.1147 107.674 36.4ZM112.743 42C112.444 42 112.177 41.9093 111.943 41.728C111.708 41.536 111.591 41.3013 111.591 41.024V31.776C111.591 31.4987 111.681 31.2693 111.863 31.088C112.055 30.896 112.289 30.8 112.567 30.8H117.175C117.729 30.8 118.247 30.9493 118.727 31.248C119.217 31.536 119.612 31.9413 119.911 32.464C120.209 32.976 120.359 33.568 120.359 34.24C120.359 34.6453 120.273 35.04 120.103 35.424C119.943 35.808 119.719 36.1547 119.431 36.464C119.153 36.7733 118.839 37.0133 118.487 37.184L118.503 36.816C118.801 36.976 119.047 37.168 119.239 37.392C119.441 37.6053 119.596 37.84 119.703 38.096C119.82 38.3413 119.889 38.608 119.911 38.896C119.953 39.1627 119.98 39.3973 119.991 39.6C120.012 39.8027 120.044 39.9733 120.087 40.112C120.14 40.2507 120.236 40.3573 120.375 40.432C120.609 40.5707 120.753 40.7733 120.807 41.04C120.871 41.296 120.812 41.5253 120.631 41.728C120.513 41.8667 120.364 41.9573 120.183 42C120.001 42.032 119.82 42.032 119.639 42C119.457 41.9573 119.308 41.904 119.191 41.84C119.009 41.7333 118.828 41.5787 118.647 41.376C118.465 41.1627 118.316 40.88 118.199 40.528C118.092 40.176 118.039 39.7227 118.039 39.168C118.039 38.9867 118.007 38.8213 117.943 38.672C117.879 38.512 117.788 38.3787 117.671 38.272C117.553 38.1547 117.404 38.0693 117.223 38.016C117.041 37.952 116.828 37.92 116.583 37.92H113.351L113.591 37.552V41.024C113.591 41.3013 113.516 41.536 113.367 41.728C113.217 41.9093 113.009 42 112.743 42ZM113.367 36.272H117.095C117.287 36.272 117.473 36.1867 117.655 36.016C117.836 35.8347 117.985 35.5947 118.103 35.296C118.22 34.9867 118.279 34.6507 118.279 34.288C118.279 33.8187 118.151 33.4293 117.895 33.12C117.649 32.8 117.383 32.64 117.095 32.64H113.399L113.591 32.128V36.656L113.367 36.272ZM123.551 30.8H128.911C129.188 30.8 129.418 30.8907 129.599 31.072C129.791 31.2427 129.887 31.4667 129.887 31.744C129.887 32.0107 129.791 32.2293 129.599 32.4C129.418 32.56 129.188 32.64 128.911 32.64H124.431L124.575 32.368V35.488L124.447 35.36H128.191C128.468 35.36 128.698 35.4507 128.879 35.632C129.071 35.8027 129.167 36.0267 129.167 36.304C129.167 36.5707 129.071 36.7893 128.879 36.96C128.698 37.12 128.468 37.2 128.191 37.2H124.495L124.575 37.072V40.304L124.447 40.16H128.911C129.188 40.16 129.418 40.256 129.599 40.448C129.791 40.6293 129.887 40.8427 129.887 41.088C129.887 41.3547 129.791 41.5733 129.599 41.744C129.418 41.9147 129.188 42 128.911 42H123.551C123.274 42 123.039 41.9093 122.847 41.728C122.666 41.536 122.575 41.3013 122.575 41.024V31.776C122.575 31.4987 122.666 31.2693 122.847 31.088C123.039 30.896 123.274 30.8 123.551 30.8Z" fill="#A100ED"/>
<defs>
<clipPath id="clip0_412_4">
<rect width="23" height="48" fill="white" transform="translate(25)"/>
</clipPath>
</defs>
</svg>
